<svg id="visual" viewBox="0 0 900 600" width="900" height="600" xmlns="http://www.w3.org/2000/svg" xmlns:xlink="http://www.w3.org/1999/xlink" version="1.1"><path d="M692 600L698 580C704 560 716 520 707 480C698 440 668 400 657.5 360C647 320 656 280 683 240C710 200 755 160 776 120C797 80 794 40 792.5 20L791 0L900 0L900 20C900 40 900 80 900 120C900 160 900 200 900 240C900 280 900 320 900 360C900 400 900 440 900 480C900 520 900 560 900 580L900 600Z" fill="#4c5362"></path><path d="M575 600L575 580C575 560 575 520 572 480C569 440 563 400 567.5 360C572 320 587 280 603.5 240C620 200 638 160 648.5 120C659 80 662 40 663.5 20L665 0L792 0L793.5 20C795 40 798 80 777 120C756 160 711 200 684 240C657 280 648 320 658.5 360C669 400 699 440 708 480C717 520 705 560 699 580L693 600Z" fill="#282d38"></path><path d="M440 600L441.5 580C443 560 446 520 440 480C434 440 419 400 389 360C359 320 314 280 312.5 240C311 200 353 160 396.5 120C440 80 485 40 507.5 20L530 0L666 0L664.5 20C663 40 660 80 649.5 120C639 160 621 200 604.5 240C588 280 573 320 568.5 360C564 400 570 440 573 480C576 520 576 560 576 580L576 600Z" fill="#21242d"></path><path d="M89 600L89 580C89 560 89 520 86 480C83 440 77 400 83 360C89 320 107 280 119 240C131 200 137 160 137 120C137 80 131 40 128 20L125 0L531 0L508.5 20C486 40 441 80 397.5 120C354 160 312 200 313.5 240C315 280 360 320 390 360C420 400 435 440 441 480C447 520 444 560 442.5 580L441 600Z" fill="#282d38"></path><path d="M0 600L0 580C0 560 0 520 0 480C0 440 0 400 0 360C0 320 0 280 0 240C0 200 0 160 0 120C0 80 0 40 0 20L0 0L126 0L129 20C132 40 138 80 138 120C138 160 132 200 120 240C108 280 90 320 84 360C78 400 84 440 87 480C90 520 90 560 90 580L90 600Z" fill="#4c5362"></path></svg>